<mxfile host="app.diagrams.net" modified="2024-04-15T11:52:02.113Z" agent="Mozilla/5.0 (Windows NT 10.0; Win64; x64) AppleWebKit/537.36 (KHTML, like Gecko) Chrome/123.0.0.0 Safari/537.36 Edg/123.0.0.0" version="24.0.4" etag="aVZLUUAj63srbfl9sETp" type="github">
  <diagram name="Page-1" id="XLwmSN0UQK06X4U0S-_Y">
    <mxGraphModel>
      <root>
        <mxCell id="0" />
        <mxCell id="1" parent="0" />
      </root>
    </mxGraphModel>
  </diagram>
</mxfile>
